<svg width="17" height="16" viewBox="0 0 17 16" fill="none" xmlns="http://www.w3.org/2000/svg">
<g id="CartPlus" clip-path="url(#clip0_151_564)">
<path id="Vector" d="M9.38538 5.5C9.38538 5.36739 9.3327 5.24021 9.23893 5.14645C9.14516 5.05268 9.01798 5 8.88538 5C8.75277 5 8.62559 5.05268 8.53182 5.14645C8.43805 5.24021 8.38538 5.36739 8.38538 5.5V7H6.88538C6.75277 7 6.62559 7.05268 6.53182 7.14645C6.43805 7.24021 6.38538 7.36739 6.38538 7.5C6.38538 7.63261 6.43805 7.75979 6.53182 7.85355C6.62559 7.94732 6.75277 8 6.88538 8H8.38538V9.5C8.38538 9.63261 8.43805 9.75979 8.53182 9.85355C8.62559 9.94732 8.75277 10 8.88538 10C9.01798 10 9.14516 9.94732 9.23893 9.85355C9.3327 9.75979 9.38538 9.63261 9.38538 9.5V8H10.8854C11.018 8 11.1452 7.94732 11.2389 7.85355C11.3327 7.75979 11.3854 7.63261 11.3854 7.5C11.3854 7.36739 11.3327 7.24021 11.2389 7.14645C11.1452 7.05268 11.018 7 10.8854 7H9.38538V5.5Z" fill="#1D2749" fill-opacity="0.8"/>
<path id="Vector_2" d="M0.885376 1C0.752768 1 0.625591 1.05268 0.531823 1.14645C0.438054 1.24021 0.385376 1.36739 0.385376 1.5C0.385376 1.63261 0.438054 1.75979 0.531823 1.85355C0.625591 1.94732 0.752768 2 0.885376 2H1.99538L2.39638 3.607L3.89438 11.592C3.91582 11.7066 3.97663 11.8101 4.06629 11.8846C4.15594 11.9591 4.26881 11.9999 4.38538 12H5.38538C4.85494 12 4.34624 12.2107 3.97116 12.5858C3.59609 12.9609 3.38538 13.4696 3.38538 14C3.38538 14.5304 3.59609 15.0391 3.97116 15.4142C4.34624 15.7893 4.85494 16 5.38538 16C5.91581 16 6.42452 15.7893 6.79959 15.4142C7.17466 15.0391 7.38538 14.5304 7.38538 14C7.38538 13.4696 7.17466 12.9609 6.79959 12.5858C6.42452 12.2107 5.91581 12 5.38538 12H12.3854C11.8549 12 11.3462 12.2107 10.9712 12.5858C10.5961 12.9609 10.3854 13.4696 10.3854 14C10.3854 14.5304 10.5961 15.0391 10.9712 15.4142C11.3462 15.7893 11.8549 16 12.3854 16C12.9158 16 13.4245 15.7893 13.7996 15.4142C14.1747 15.0391 14.3854 14.5304 14.3854 14C14.3854 13.4696 14.1747 12.9609 13.7996 12.5858C13.4245 12.2107 12.9158 12 12.3854 12H13.3854C13.5019 11.9999 13.6148 11.9591 13.7045 11.8846C13.7941 11.8101 13.8549 11.7066 13.8764 11.592L15.3764 3.592C15.3899 3.51984 15.3873 3.44558 15.3689 3.37452C15.3505 3.30345 15.3166 3.23731 15.2698 3.1808C15.2229 3.12429 15.1642 3.0788 15.0977 3.04755C15.0313 3.0163 14.9588 3.00007 14.8854 3H3.27538L2.87038 1.379C2.84339 1.27078 2.78099 1.1747 2.69311 1.10602C2.60523 1.03735 2.49691 1.00003 2.38538 1H0.885376ZM4.80038 11L3.48738 4H14.2834L12.9704 11H4.80038ZM6.38538 14C6.38538 14.2652 6.28002 14.5196 6.09248 14.7071C5.90495 14.8946 5.65059 15 5.38538 15C5.12016 15 4.86581 14.8946 4.67827 14.7071C4.49073 14.5196 4.38538 14.2652 4.38538 14C4.38538 13.7348 4.49073 13.4804 4.67827 13.2929C4.86581 13.1054 5.12016 13 5.38538 13C5.65059 13 5.90495 13.1054 6.09248 13.2929C6.28002 13.4804 6.38538 13.7348 6.38538 14ZM13.3854 14C13.3854 14.2652 13.28 14.5196 13.0925 14.7071C12.9049 14.8946 12.6506 15 12.3854 15C12.1202 15 11.8658 14.8946 11.6783 14.7071C11.4907 14.5196 11.3854 14.2652 11.3854 14C11.3854 13.7348 11.4907 13.4804 11.6783 13.2929C11.8658 13.1054 12.1202 13 12.3854 13C12.6506 13 12.9049 13.1054 13.0925 13.2929C13.28 13.4804 13.3854 13.7348 13.3854 14Z" fill="#1D2749" fill-opacity="0.8"/>
</g>
<defs>
<clipPath id="clip0_151_564">
<rect width="16" height="16" fill="white" transform="translate(0.385376)"/>
</clipPath>
</defs>
</svg>
