<svg width="16" height="15" viewBox="0 0 16 15" fill="none" xmlns="http://www.w3.org/2000/svg">
<path id="Vector" d="M7.99987 2.74804L7.28287 2.01104C5.59988 0.281048 2.51389 0.878046 1.39989 3.05304C0.876892 4.07604 0.758893 5.55303 1.71389 7.43802C2.63389 9.25302 4.54788 11.427 7.99987 13.795C11.4519 11.427 13.3649 9.25302 14.2858 7.43802C15.2408 5.55203 15.1238 4.07604 14.5998 3.05304C13.4859 0.878046 10.3999 0.280048 8.71687 2.01004L7.99987 2.74804ZM7.99987 15C-7.33308 4.86803 3.27888 -3.03994 7.82387 1.14304C7.88387 1.19804 7.94287 1.25504 7.99987 1.31404C8.05629 1.2551 8.115 1.19839 8.17587 1.14404C12.7199 -3.04194 23.3328 4.86703 7.99987 15Z" fill="#EB5757"/>
</svg>
