<svg width="17" height="15" viewBox="0 0 17 15" fill="none" xmlns="http://www.w3.org/2000/svg">
<path id="Vector" d="M8.38525 2.74804L7.66825 2.01104C5.98525 0.281048 2.89926 0.878046 1.78527 3.05304C1.26227 4.07604 1.14427 5.55303 2.09927 7.43802C3.01926 9.25302 4.93326 11.427 8.38525 13.795C11.8372 11.427 13.7502 9.25302 14.6712 7.43802C15.6262 5.55203 15.5092 4.07604 14.9852 3.05304C13.8712 0.878046 10.7852 0.280048 9.10224 2.01004L8.38525 2.74804ZM8.38525 15C-6.94771 4.86803 3.66426 -3.03994 8.20925 1.14304C8.26925 1.19804 8.32825 1.25504 8.38525 1.31404C8.44167 1.2551 8.50038 1.19839 8.56124 1.14404C13.1052 -3.04194 23.7182 4.86703 8.38525 15Z" fill="#1D2749"/>
</svg>
