<svg width="46" height="46" viewBox="0 0 46 46" fill="none" xmlns="http://www.w3.org/2000/svg">
<g id="PlayBtnFill" clip-path="url(#clip0_182_586)">
<path id="Vector" d="M0.5 34.25V11.75C0.5 10.2582 1.09263 8.82742 2.14752 7.77252C3.20242 6.71763 4.63316 6.125 6.125 6.125H39.875C41.3668 6.125 42.7976 6.71763 43.8525 7.77252C44.9074 8.82742 45.5 10.2582 45.5 11.75V34.25C45.5 35.7418 44.9074 37.1726 43.8525 38.2275C42.7976 39.2824 41.3668 39.875 39.875 39.875H6.125C4.63316 39.875 3.20242 39.2824 2.14752 38.2275C1.09263 37.1726 0.5 35.7418 0.5 34.25ZM19.5969 14.8241C19.3866 14.6743 19.1392 14.5854 18.8817 14.567C18.6242 14.5485 18.3667 14.6013 18.1372 14.7195C17.9077 14.8377 17.7152 15.0168 17.5808 15.2372C17.4464 15.4575 17.3752 15.7106 17.375 15.9688V30.0312C17.3752 30.2894 17.4464 30.5425 17.5808 30.7628C17.7152 30.9832 17.9077 31.1623 18.1372 31.2805C18.3667 31.3987 18.6242 31.4515 18.8817 31.433C19.1392 31.4146 19.3866 31.3256 19.5969 31.1759L29.4406 24.1447C29.6229 24.0146 29.7715 23.8429 29.874 23.6438C29.9765 23.4447 30.03 23.2239 30.03 23C30.03 22.7761 29.9765 22.5553 29.874 22.3562C29.7715 22.1571 29.6229 21.9854 29.4406 21.8553L19.5969 14.8241Z" fill="#1D2749"/>
</g>
<defs>
<clipPath id="clip0_182_586">
<rect width="45" height="45" fill="white" transform="translate(0.5 0.5)"/>
</clipPath>
</defs>
</svg>
