<svg width="17" height="16" viewBox="0 0 17 16" fill="none" xmlns="http://www.w3.org/2000/svg">
<g id="Search" clip-path="url(#clip0_43_164)">
<path id="Vector" d="M12.2419 10.344C13.2102 9.0227 13.6439 7.3845 13.4562 5.75716C13.2685 4.12982 12.4733 2.63335 11.2297 1.56714C9.98604 0.50093 8.38567 -0.0563875 6.74876 0.00668566C5.11184 0.0697588 3.55911 0.748571 2.40119 1.90732C1.24327 3.06606 0.565572 4.61929 0.50367 6.25624C0.441768 7.8932 1.00023 9.49317 2.06733 10.7361C3.13443 11.9789 4.63147 12.7731 6.25894 12.9596C7.88641 13.1461 9.5243 12.7112 10.8449 11.742H10.8439C10.8739 11.782 10.9059 11.82 10.9419 11.857L14.7919 15.707C14.9794 15.8946 15.2338 16.0001 15.4991 16.0002C15.7643 16.0003 16.0188 15.895 16.2064 15.7075C16.3941 15.52 16.4995 15.2656 16.4996 15.0004C16.4997 14.7351 16.3944 14.4806 16.2069 14.293L12.3569 10.443C12.3212 10.4068 12.2827 10.3744 12.2419 10.344ZM12.4999 6.50001C12.4999 7.22228 12.3577 7.93748 12.0813 8.60477C11.8049 9.27206 11.3997 9.87837 10.889 10.3891C10.3783 10.8998 9.77197 11.3049 9.10468 11.5813C8.43739 11.8577 7.72219 12 6.99992 12C6.27765 12 5.56245 11.8577 4.89516 11.5813C4.22787 11.3049 3.62156 10.8998 3.11083 10.3891C2.60011 9.87837 2.19498 9.27206 1.91858 8.60477C1.64218 7.93748 1.49992 7.22228 1.49992 6.50001C1.49992 5.04132 2.07938 3.64237 3.11083 2.61092C4.14228 1.57947 5.54123 1.00001 6.99992 1.00001C8.45861 1.00001 9.85756 1.57947 10.889 2.61092C11.9205 3.64237 12.4999 5.04132 12.4999 6.50001Z" fill="#95928E"/>
</g>
<defs>
<clipPath id="clip0_43_164">
<rect width="16" height="16" fill="white" transform="translate(0.5)"/>
</clipPath>
</defs>
</svg>
