<svg width="6" height="10" viewBox="0 0 6 10" fill="none" xmlns="http://www.w3.org/2000/svg">
<path id="Vector" fill-rule="evenodd" clip-rule="evenodd" d="M0.727728 0.112982C0.763451 0.0771683 0.805889 0.0487541 0.85261 0.0293668C0.899332 0.00997949 0.949419 0 1 0C1.05059 0 1.10068 0.00997949 1.1474 0.0293668C1.19412 0.0487541 1.23656 0.0771683 1.27228 0.112982L5.88712 4.72783C5.92294 4.76355 5.95135 4.80599 5.97074 4.85271C5.99013 4.89943 6.0001 4.94952 6.0001 5.0001C6.0001 5.05068 5.99013 5.10077 5.97074 5.14749C5.95135 5.19422 5.92294 5.23665 5.88712 5.27238L1.27228 9.88722C1.20007 9.95943 1.10213 10 1 10C0.89788 10 0.79994 9.95943 0.727728 9.88722C0.655516 9.81501 0.614947 9.71707 0.614947 9.61494C0.614947 9.51282 0.655516 9.41488 0.727728 9.34267L5.07106 5.0001L0.727728 0.657534C0.691914 0.62181 0.6635 0.579373 0.644113 0.532651C0.624725 0.485929 0.614746 0.435842 0.614746 0.385258C0.614746 0.334673 0.624725 0.284586 0.644113 0.237865C0.6635 0.191143 0.691914 0.148705 0.727728 0.112982Z" fill="#706F6F" fill-opacity="0.7"/>
</svg>
